<?xml version="1.0" encoding="UTF-8" standalone="no"?>
<!DOCTYPE svg PUBLIC "-//W3C//DTD SVG 1.1//EN"
 "http://www.w3.org/Graphics/SVG/1.1/DTD/svg11.dtd">
<!-- Generated by graphviz version 2.43.0 (0)
 -->
<!-- Title: %3 Pages: 1 -->
<svg width="1011pt" height="265pt"
 viewBox="0.00 0.00 1011.00 265.00" xmlns="http://www.w3.org/2000/svg" xmlns:xlink="http://www.w3.org/1999/xlink">
<g id="graph0" class="graph" transform="scale(1 1) rotate(0) translate(4 261)">
<title>%3</title>
<polygon fill="white" stroke="transparent" points="-4,4 -4,-261 1007,-261 1007,4 -4,4"/>
<g id="clust1" class="cluster">
<title>cluster_0</title>
<polygon fill="none" stroke="black" points="417,-174 417,-249 671,-249 671,-174 417,-174"/>
<text text-anchor="middle" x="544" y="-181.8" font-family="Times,serif" font-size="14.00">2022</text>
</g>
<g id="clust2" class="cluster">
<title>cluster_1</title>
<polygon fill="none" stroke="black" points="440,-91 440,-166 566,-166 566,-91 440,-91"/>
<text text-anchor="middle" x="503" y="-98.8" font-family="Times,serif" font-size="14.00">2023</text>
</g>
<g id="clust3" class="cluster">
<title>cluster_2</title>
<polygon fill="none" stroke="black" points="8,-8 8,-83 995,-83 995,-8 8,-8"/>
<text text-anchor="middle" x="501.5" y="-15.8" font-family="Times,serif" font-size="14.00">2024</text>
</g>
<!-- 268040009 -->
<g id="node1" class="node">
<title>268040009</title>
<g id="a_node1"><a xlink:href="https://www.semanticscholar.org/paper/974865acb588c06b3b4d587f81c7f56259ad4774" xlink:title="title: Unveiling Mechanistic Complexity in Manganese&#45;Catalyzed C–H Bond Functionalization Using IR Spectroscopy Over 16 Orders of Magnitude in Time &#10;authors: I. Fairlamb, Jason M. Lynam&#10;published: 2024" target="_blank">
<polygon fill="none" stroke="black" points="296,-75 16,-75 16,-39 296,-39 296,-75"/>
<text text-anchor="middle" x="156" y="-53.3" font-family="Times,serif" font-size="14.00">Unveiling Mechanistic Complexity ...</text>
</a>
</g>
</g>
<!-- 249710437 -->
<g id="node2" class="node">
<title>249710437</title>
<g id="a_node2"><a xlink:href="https://www.semanticscholar.org/paper/a2266a06e752df98615787746599dc81440c0ae1" xlink:title="title: Photochemistry of transition metal carbonyls. &#10;authors: J. J. Turner, M. George, M. Poliakoff, R. Perutz&#10;published: 2022" target="_blank">
<polygon fill="none" stroke="black" points="663.5,-241 424.5,-241 424.5,-205 663.5,-205 663.5,-241"/>
<text text-anchor="middle" x="544" y="-219.3" font-family="Times,serif" font-size="14.00">Photochemistry of transition ...</text>
</a>
</g>
</g>
<!-- 268040009&#45;&gt;249710437 -->
<g id="edge5" class="edge">
<title>268040009&#45;&gt;249710437</title>
<path fill="none" stroke="black" d="M196.42,-75.09C267.9,-105.3 416.36,-168.05 494.09,-200.91"/>
<polygon fill="black" stroke="black" points="493.09,-204.28 503.67,-204.95 495.82,-197.83 493.09,-204.28"/>
</g>
<!-- 267630595 -->
<g id="node3" class="node">
<title>267630595</title>
<g id="a_node3"><a xlink:href="https://www.semanticscholar.org/paper/c4c3b191a2b33164b5526aa27e32936550c71402" xlink:title="title: Effect of extraction parameters on the synergistic reaction mechanism for arsenic and mercury removal from natural gas condensate via LLE, vibrational spectroscopy and DFT calculations &#10;authors: Teerapon Pirom, Kasidit Nootong, Wikorn Punyain, K. Maneeintr, U. Pancharoen&#10;published: 2024" target="_blank">
<polygon fill="none" stroke="black" points="486,-75 314,-75 314,-39 486,-39 486,-75"/>
<text text-anchor="middle" x="400" y="-53.3" font-family="Times,serif" font-size="14.00">Effect of extraction ...</text>
</a>
</g>
</g>
<!-- 259739018 -->
<g id="node6" class="node">
<title>259739018</title>
<g id="a_node6"><a xlink:href="https://www.semanticscholar.org/paper/8119b95e9c475d7959fae26c2e70d8d71fcb03b6" xlink:title="title: A DFT and Matrix–Isolation IR/UV&#45;Visible Study of High&#45;Coordinated Lanthanide&#45;CO Complexes &#10;authors: A. Kovács, W. Klotzbücher&#10;published: 2023" target="_blank">
<polygon fill="none" stroke="black" points="558,-158 448,-158 448,-122 558,-122 558,-158"/>
<text text-anchor="middle" x="503" y="-136.3" font-family="Times,serif" font-size="14.00">A DFT and ...</text>
</a>
</g>
</g>
<!-- 267630595&#45;&gt;259739018 -->
<g id="edge2" class="edge">
<title>267630595&#45;&gt;259739018</title>
<path fill="none" stroke="black" d="M421.84,-75.18C436.73,-86.88 456.63,-102.53 473,-115.4"/>
<polygon fill="black" stroke="black" points="471.16,-118.42 481.19,-121.85 475.49,-112.91 471.16,-118.42"/>
</g>
<!-- 267446961 -->
<g id="node4" class="node">
<title>267446961</title>
<g id="a_node4"><a xlink:href="https://www.semanticscholar.org/paper/e3ba79aa32a1148dca4a7f52108259344fdc4711" xlink:title="title: Preference of C2v Symmetry in Low&#45;Spin Hexacarbonyls of Rare&#45;Earth and f Elements &#10;authors: Attila Kovács, Werner Klotzbücher&#10;published: 2024" target="_blank">
<polygon fill="none" stroke="black" points="667.5,-75 504.5,-75 504.5,-39 667.5,-39 667.5,-75"/>
<text text-anchor="middle" x="586" y="-53.3" font-family="Times,serif" font-size="14.00">Preference of C2v ...</text>
</a>
</g>
</g>
<!-- 267446961&#45;&gt;249710437 -->
<g id="edge1" class="edge">
<title>267446961&#45;&gt;249710437</title>
<path fill="none" stroke="black" d="M584.98,-75.16C583.36,-96.75 579.35,-134.77 570,-166 566.99,-176.06 562.47,-186.62 558.05,-195.83"/>
<polygon fill="black" stroke="black" points="554.88,-194.34 553.53,-204.85 561.14,-197.47 554.88,-194.34"/>
</g>
<!-- 267446961&#45;&gt;259739018 -->
<g id="edge6" class="edge">
<title>267446961&#45;&gt;259739018</title>
<path fill="none" stroke="black" d="M568.4,-75.18C556.62,-86.67 540.96,-101.96 527.91,-114.69"/>
<polygon fill="black" stroke="black" points="525.29,-112.36 520.58,-121.85 530.18,-117.37 525.29,-112.36"/>
</g>
<!-- 268348425 -->
<g id="node5" class="node">
<title>268348425</title>
<g id="a_node5"><a xlink:href="https://www.semanticscholar.org/paper/b8003f5669c1719ebd86d70f0ff0d31d659482e9" xlink:title="title: Mid&#45;infrared dual&#45;comb spectroscopy with quantum cascade lasers &#10;authors: J. Hayden, M. Geiser, M. Gianella, Raphael Horvath, A. Hugi, L. Sterczewski, Markus Mangold&#10;published: 2024" target="_blank">
<polygon fill="none" stroke="black" points="986.5,-75 685.5,-75 685.5,-39 986.5,-39 986.5,-75"/>
<text text-anchor="middle" x="836" y="-53.3" font-family="Times,serif" font-size="14.00">Mid&#45;infrared dual&#45;comb spectroscopy ...</text>
</a>
</g>
</g>
<!-- 268348425&#45;&gt;249710437 -->
<g id="edge3" class="edge">
<title>268348425&#45;&gt;249710437</title>
<path fill="none" stroke="black" d="M805.58,-75.09C752.33,-104.99 642.33,-166.78 583.36,-199.89"/>
<polygon fill="black" stroke="black" points="581.36,-197 574.35,-204.95 584.79,-203.11 581.36,-197"/>
</g>
<!-- 259739018&#45;&gt;249710437 -->
<g id="edge4" class="edge">
<title>259739018&#45;&gt;249710437</title>
<path fill="none" stroke="black" d="M511.7,-158.18C517.24,-169.13 524.53,-183.54 530.78,-195.89"/>
<polygon fill="black" stroke="black" points="527.68,-197.51 535.32,-204.85 533.92,-194.34 527.68,-197.51"/>
</g>
</g>
</svg>
