<?xml version="1.0" encoding="UTF-8" standalone="no"?>
<!DOCTYPE svg PUBLIC "-//W3C//DTD SVG 1.1//EN"
 "http://www.w3.org/Graphics/SVG/1.1/DTD/svg11.dtd">
<!-- Generated by graphviz version 2.43.0 (0)
 -->
<!-- Title: %3 Pages: 1 -->
<svg width="1011pt" height="265pt"
 viewBox="0.00 0.00 1011.00 265.00" xmlns="http://www.w3.org/2000/svg" xmlns:xlink="http://www.w3.org/1999/xlink">
<g id="graph0" class="graph" transform="scale(1 1) rotate(0) translate(4 261)">
<title>%3</title>
<polygon fill="white" stroke="transparent" points="-4,4 -4,-261 1007,-261 1007,4 -4,4"/>
<g id="clust1" class="cluster">
<title>cluster_0</title>
<polygon fill="none" stroke="black" points="343,-174 343,-249 597,-249 597,-174 343,-174"/>
<text text-anchor="middle" x="470" y="-181.8" font-family="Times,serif" font-size="14.00">2022</text>
</g>
<g id="clust2" class="cluster">
<title>cluster_1</title>
<polygon fill="none" stroke="black" points="225,-91 225,-166 351,-166 351,-91 225,-91"/>
<text text-anchor="middle" x="288" y="-98.8" font-family="Times,serif" font-size="14.00">2023</text>
</g>
<g id="clust3" class="cluster">
<title>cluster_2</title>
<polygon fill="none" stroke="black" points="8,-8 8,-83 995,-83 995,-8 8,-8"/>
<text text-anchor="middle" x="501.5" y="-15.8" font-family="Times,serif" font-size="14.00">2024</text>
</g>
<!-- 267446961 -->
<g id="node1" class="node">
<title>267446961</title>
<g id="a_node1"><a xlink:href="https://www.semanticscholar.org/paper/e3ba79aa32a1148dca4a7f52108259344fdc4711" xlink:title="title: Preference of C2v Symmetry in Low&#45;Spin Hexacarbonyls of Rare&#45;Earth and f&#10;Elements &#10;authors: Attila Kovács, Werner Klotzbücher&#10;published: 2024" target="_blank">
<polygon fill="none" stroke="black" points="369.5,-75 206.5,-75 206.5,-39 369.5,-39 369.5,-75"/>
<text text-anchor="middle" x="288" y="-53.3" font-family="Times,serif" font-size="14.00">Preference of C2v ...</text>
</a>
</g>
</g>
<!-- 259739018 -->
<g id="node3" class="node">
<title>259739018</title>
<g id="a_node3"><a xlink:href="https://www.semanticscholar.org/paper/8119b95e9c475d7959fae26c2e70d8d71fcb03b6" xlink:title="title: A DFT and Matrix–Isolation IR/UV&#45;Visible Study of High&#45;Coordinated&#10;Lanthanide&#45;CO Complexes &#10;authors: A. Kovács, W. Klotzbücher&#10;published: 2023" target="_blank">
<polygon fill="none" stroke="black" points="343,-158 233,-158 233,-122 343,-122 343,-158"/>
<text text-anchor="middle" x="288" y="-136.3" font-family="Times,serif" font-size="14.00">A DFT and ...</text>
</a>
</g>
</g>
<!-- 267446961&#45;&gt;259739018 -->
<g id="edge6" class="edge">
<title>267446961&#45;&gt;259739018</title>
<path fill="none" stroke="black" d="M288,-75.18C288,-85.81 288,-99.69 288,-111.8"/>
<polygon fill="black" stroke="black" points="284.5,-111.85 288,-121.85 291.5,-111.85 284.5,-111.85"/>
</g>
<!-- 249710437 -->
<g id="node5" class="node">
<title>249710437</title>
<g id="a_node5"><a xlink:href="https://www.semanticscholar.org/paper/a2266a06e752df98615787746599dc81440c0ae1" xlink:title="title: Photochemistry of transition metal carbonyls. &#10;authors: J. J. Turner, M. George, M. Poliakoff, R. Perutz&#10;published: 2022" target="_blank">
<polygon fill="none" stroke="black" points="589.5,-241 350.5,-241 350.5,-205 589.5,-205 589.5,-241"/>
<text text-anchor="middle" x="470" y="-219.3" font-family="Times,serif" font-size="14.00">Photochemistry of transition ...</text>
</a>
</g>
</g>
<!-- 267446961&#45;&gt;249710437 -->
<g id="edge1" class="edge">
<title>267446961&#45;&gt;249710437</title>
<path fill="none" stroke="black" d="M329.19,-75.11C338.1,-79.66 347.18,-85 355,-91 395.05,-121.7 431.72,-167.99 452.42,-196.53"/>
<polygon fill="black" stroke="black" points="449.65,-198.68 458.31,-204.78 455.35,-194.61 449.65,-198.68"/>
</g>
<!-- 268348425 -->
<g id="node2" class="node">
<title>268348425</title>
<g id="a_node2"><a xlink:href="https://www.semanticscholar.org/paper/b8003f5669c1719ebd86d70f0ff0d31d659482e9" xlink:title="title: Mid&#45;infrared dual&#45;comb spectroscopy with quantum cascade lasers &#10;authors: J. Hayden, M. Geiser, M. Gianella, Raphael Horvath, A. Hugi, L. Sterczewski, Markus Mangold&#10;published: 2024" target="_blank">
<polygon fill="none" stroke="black" points="688.5,-75 387.5,-75 387.5,-39 688.5,-39 688.5,-75"/>
<text text-anchor="middle" x="538" y="-53.3" font-family="Times,serif" font-size="14.00">Mid&#45;infrared dual&#45;comb spectroscopy ...</text>
</a>
</g>
</g>
<!-- 268348425&#45;&gt;249710437 -->
<g id="edge3" class="edge">
<title>268348425&#45;&gt;249710437</title>
<path fill="none" stroke="black" d="M530.85,-75.24C518.93,-103.98 494.93,-161.87 480.9,-195.72"/>
<polygon fill="black" stroke="black" points="477.65,-194.41 477.05,-204.99 484.12,-197.09 477.65,-194.41"/>
</g>
<!-- 259739018&#45;&gt;249710437 -->
<g id="edge4" class="edge">
<title>259739018&#45;&gt;249710437</title>
<path fill="none" stroke="black" d="M326.6,-158.18C354.56,-170.62 392.54,-187.53 422.39,-200.81"/>
<polygon fill="black" stroke="black" points="421.21,-204.12 431.77,-204.99 424.06,-197.72 421.21,-204.12"/>
</g>
<!-- 267630595 -->
<g id="node4" class="node">
<title>267630595</title>
<g id="a_node4"><a xlink:href="https://www.semanticscholar.org/paper/c4c3b191a2b33164b5526aa27e32936550c71402" xlink:title="title: Effect of extraction parameters on the synergistic reaction mechanism for&#10;arsenic and mercury removal from natural gas condensate via LLE, vibrational&#10;spectroscopy and DFT calculations &#10;authors: Teerapon Pirom, Kasidit Nootong, Wikorn Punyain, K. Maneeintr, U. Pancharoen&#10;published: 2024" target="_blank">
<polygon fill="none" stroke="black" points="188,-75 16,-75 16,-39 188,-39 188,-75"/>
<text text-anchor="middle" x="102" y="-53.3" font-family="Times,serif" font-size="14.00">Effect of extraction ...</text>
</a>
</g>
</g>
<!-- 267630595&#45;&gt;259739018 -->
<g id="edge2" class="edge">
<title>267630595&#45;&gt;259739018</title>
<path fill="none" stroke="black" d="M141.45,-75.18C170.15,-87.68 209.17,-104.67 239.74,-117.98"/>
<polygon fill="black" stroke="black" points="238.36,-121.2 248.93,-121.99 241.16,-114.78 238.36,-121.2"/>
</g>
<!-- 268040009 -->
<g id="node6" class="node">
<title>268040009</title>
<g id="a_node6"><a xlink:href="https://www.semanticscholar.org/paper/974865acb588c06b3b4d587f81c7f56259ad4774" xlink:title="title: Unveiling Mechanistic Complexity in Manganese&#45;Catalyzed C–H Bond&#10;Functionalization Using IR Spectroscopy Over 16 Orders of Magnitude in Time &#10;authors: I. Fairlamb, Jason M. Lynam&#10;published: 2024" target="_blank">
<polygon fill="none" stroke="black" points="987,-75 707,-75 707,-39 987,-39 987,-75"/>
<text text-anchor="middle" x="847" y="-53.3" font-family="Times,serif" font-size="14.00">Unveiling Mechanistic Complexity ...</text>
</a>
</g>
</g>
<!-- 268040009&#45;&gt;249710437 -->
<g id="edge5" class="edge">
<title>268040009&#45;&gt;249710437</title>
<path fill="none" stroke="black" d="M807.72,-75.09C738.27,-105.3 594.02,-168.05 518.49,-200.91"/>
<polygon fill="black" stroke="black" points="516.96,-197.75 509.19,-204.95 519.76,-204.17 516.96,-197.75"/>
</g>
</g>
</svg>
