<?xml version="1.0" encoding="UTF-8" standalone="no"?>
<!DOCTYPE svg PUBLIC "-//W3C//DTD SVG 1.1//EN"
 "http://www.w3.org/Graphics/SVG/1.1/DTD/svg11.dtd">
<!-- Generated by graphviz version 2.43.0 (0)
 -->
<!-- Title: %3 Pages: 1 -->
<svg width="1012pt" height="265pt"
 viewBox="0.00 0.00 1012.00 265.00" xmlns="http://www.w3.org/2000/svg" xmlns:xlink="http://www.w3.org/1999/xlink">
<g id="graph0" class="graph" transform="scale(1 1) rotate(0) translate(4 261)">
<title>%3</title>
<polygon fill="white" stroke="transparent" points="-4,4 -4,-261 1008,-261 1008,4 -4,4"/>
<g id="clust1" class="cluster">
<title>cluster_0</title>
<polygon fill="none" stroke="black" points="428,-174 428,-249 682,-249 682,-174 428,-174"/>
<text text-anchor="middle" x="555" y="-181.8" font-family="Times,serif" font-size="14.00">2022</text>
</g>
<g id="clust2" class="cluster">
<title>cluster_1</title>
<polygon fill="none" stroke="black" points="653,-91 653,-166 779,-166 779,-91 653,-91"/>
<text text-anchor="middle" x="716" y="-98.8" font-family="Times,serif" font-size="14.00">2023</text>
</g>
<g id="clust3" class="cluster">
<title>cluster_2</title>
<polygon fill="none" stroke="black" points="8,-8 8,-83 996,-83 996,-8 8,-8"/>
<text text-anchor="middle" x="502" y="-15.8" font-family="Times,serif" font-size="14.00">2024</text>
</g>
<!-- 268348425 -->
<g id="node1" class="node">
<title>268348425</title>
<g id="a_node1"><a xlink:href="https://www.semanticscholar.org/paper/b8003f5669c1719ebd86d70f0ff0d31d659482e9" xlink:title="title: Mid&#45;infrared dual&#45;comb spectroscopy with quantum cascade lasers &#10;authors: J. Hayden, M. Geiser, M. Gianella, Raphael Horvath, A. Hugi, L. Sterczewski, Markus Mangold&#10;published: 2024" target="_blank">
<polygon fill="none" stroke="black" points="317.5,-75 16.5,-75 16.5,-39 317.5,-39 317.5,-75"/>
<text text-anchor="middle" x="167" y="-53.3" font-family="Times,serif" font-size="14.00">Mid&#45;infrared dual&#45;comb spectroscopy ...</text>
</a>
</g>
</g>
<!-- 249710437 -->
<g id="node2" class="node">
<title>249710437</title>
<g id="a_node2"><a xlink:href="https://www.semanticscholar.org/paper/a2266a06e752df98615787746599dc81440c0ae1" xlink:title="title: Photochemistry of transition metal carbonyls. &#10;authors: J. J. Turner, M. George, M. Poliakoff, R. Perutz&#10;published: 2022" target="_blank">
<polygon fill="none" stroke="black" points="674.5,-241 435.5,-241 435.5,-205 674.5,-205 674.5,-241"/>
<text text-anchor="middle" x="555" y="-219.3" font-family="Times,serif" font-size="14.00">Photochemistry of transition ...</text>
</a>
</g>
</g>
<!-- 268348425&#45;&gt;249710437 -->
<g id="edge3" class="edge">
<title>268348425&#45;&gt;249710437</title>
<path fill="none" stroke="black" d="M207.42,-75.09C278.9,-105.3 427.36,-168.05 505.09,-200.91"/>
<polygon fill="black" stroke="black" points="504.09,-204.28 514.67,-204.95 506.82,-197.83 504.09,-204.28"/>
</g>
<!-- 268040009 -->
<g id="node3" class="node">
<title>268040009</title>
<g id="a_node3"><a xlink:href="https://www.semanticscholar.org/paper/974865acb588c06b3b4d587f81c7f56259ad4774" xlink:title="title: Unveiling Mechanistic Complexity in Manganese&#45;Catalyzed C–H Bond&#10;Functionalization Using IR Spectroscopy Over 16 Orders of Magnitude in Time &#10;authors: I. Fairlamb, Jason M. Lynam&#10;published: 2024" target="_blank">
<polygon fill="none" stroke="black" points="616,-75 336,-75 336,-39 616,-39 616,-75"/>
<text text-anchor="middle" x="476" y="-53.3" font-family="Times,serif" font-size="14.00">Unveiling Mechanistic Complexity ...</text>
</a>
</g>
</g>
<!-- 268040009&#45;&gt;249710437 -->
<g id="edge5" class="edge">
<title>268040009&#45;&gt;249710437</title>
<path fill="none" stroke="black" d="M484.31,-75.24C498.15,-103.98 526.04,-161.87 542.34,-195.72"/>
<polygon fill="black" stroke="black" points="539.31,-197.5 546.81,-204.99 545.62,-194.46 539.31,-197.5"/>
</g>
<!-- 267446961 -->
<g id="node4" class="node">
<title>267446961</title>
<g id="a_node4"><a xlink:href="https://www.semanticscholar.org/paper/e3ba79aa32a1148dca4a7f52108259344fdc4711" xlink:title="title: Preference of C2v Symmetry in Low&#45;Spin Hexacarbonyls of Rare&#45;Earth and f&#10;Elements &#10;authors: Attila Kovács, Werner Klotzbücher&#10;published: 2024" target="_blank">
<polygon fill="none" stroke="black" points="797.5,-75 634.5,-75 634.5,-39 797.5,-39 797.5,-75"/>
<text text-anchor="middle" x="716" y="-53.3" font-family="Times,serif" font-size="14.00">Preference of C2v ...</text>
</a>
</g>
</g>
<!-- 267446961&#45;&gt;249710437 -->
<g id="edge1" class="edge">
<title>267446961&#45;&gt;249710437</title>
<path fill="none" stroke="black" d="M673.31,-75.1C664.77,-79.57 656.22,-84.88 649,-91 613.7,-120.92 584.79,-166.82 568.74,-195.59"/>
<polygon fill="black" stroke="black" points="565.52,-194.19 563.8,-204.64 571.66,-197.54 565.52,-194.19"/>
</g>
<!-- 259739018 -->
<g id="node5" class="node">
<title>259739018</title>
<g id="a_node5"><a xlink:href="https://www.semanticscholar.org/paper/8119b95e9c475d7959fae26c2e70d8d71fcb03b6" xlink:title="title: A DFT and Matrix–Isolation IR/UV&#45;Visible Study of High&#45;Coordinated&#10;Lanthanide&#45;CO Complexes &#10;authors: A. Kovács, W. Klotzbücher&#10;published: 2023" target="_blank">
<polygon fill="none" stroke="black" points="771,-158 661,-158 661,-122 771,-122 771,-158"/>
<text text-anchor="middle" x="716" y="-136.3" font-family="Times,serif" font-size="14.00">A DFT and ...</text>
</a>
</g>
</g>
<!-- 267446961&#45;&gt;259739018 -->
<g id="edge6" class="edge">
<title>267446961&#45;&gt;259739018</title>
<path fill="none" stroke="black" d="M716,-75.18C716,-85.81 716,-99.69 716,-111.8"/>
<polygon fill="black" stroke="black" points="712.5,-111.85 716,-121.85 719.5,-111.85 712.5,-111.85"/>
</g>
<!-- 259739018&#45;&gt;249710437 -->
<g id="edge4" class="edge">
<title>259739018&#45;&gt;249710437</title>
<path fill="none" stroke="black" d="M681.86,-158.18C657.33,-170.52 624.1,-187.23 597.81,-200.46"/>
<polygon fill="black" stroke="black" points="596.18,-197.36 588.82,-204.99 599.32,-203.62 596.18,-197.36"/>
</g>
<!-- 267630595 -->
<g id="node6" class="node">
<title>267630595</title>
<g id="a_node6"><a xlink:href="https://www.semanticscholar.org/paper/c4c3b191a2b33164b5526aa27e32936550c71402" xlink:title="title: Effect of extraction parameters on the synergistic reaction mechanism for&#10;arsenic and mercury removal from natural gas condensate via LLE, vibrational&#10;spectroscopy and DFT calculations &#10;authors: Teerapon Pirom, Kasidit Nootong, Wikorn Punyain, K. Maneeintr, U. Pancharoen&#10;published: 2024" target="_blank">
<polygon fill="none" stroke="black" points="988,-75 816,-75 816,-39 988,-39 988,-75"/>
<text text-anchor="middle" x="902" y="-53.3" font-family="Times,serif" font-size="14.00">Effect of extraction ...</text>
</a>
</g>
</g>
<!-- 267630595&#45;&gt;259739018 -->
<g id="edge2" class="edge">
<title>267630595&#45;&gt;259739018</title>
<path fill="none" stroke="black" d="M862.55,-75.18C833.85,-87.68 794.83,-104.67 764.26,-117.98"/>
<polygon fill="black" stroke="black" points="762.84,-114.78 755.07,-121.99 765.64,-121.2 762.84,-114.78"/>
</g>
</g>
</svg>
