<?xml version="1.0" encoding="UTF-8" standalone="no"?>
<!DOCTYPE svg PUBLIC "-//W3C//DTD SVG 1.1//EN"
 "http://www.w3.org/Graphics/SVG/1.1/DTD/svg11.dtd">
<!-- Generated by graphviz version 2.43.0 (0)
 -->
<!-- Title: %3 Pages: 1 -->
<svg width="1705pt" height="239pt"
 viewBox="0.00 0.00 1705.00 239.00" xmlns="http://www.w3.org/2000/svg" xmlns:xlink="http://www.w3.org/1999/xlink">
<g id="graph0" class="graph" transform="scale(1 1) rotate(0) translate(4 235)">
<title>%3</title>
<polygon fill="white" stroke="transparent" points="-4,4 -4,-235 1701,-235 1701,4 -4,4"/>
<!-- 267446961 -->
<g id="node1" class="node">
<title>267446961</title>
<g id="a_node1"><a xlink:href="https://www.semanticscholar.org/paper/e3ba79aa32a1148dca4a7f52108259344fdc4711" xlink:title="Preference of C2v Symmetry in Low&#45;Spin Hexacarbonyls of Rare\n(267446961)\n2023">
<polygon fill="none" stroke="black" points="938,-231 459,-231 459,-178 938,-178 938,-231"/>
<text text-anchor="middle" x="698.5" y="-215.8" font-family="Times,serif" font-size="14.00">Preference of C2v Symmetry in Low&#45;Spin Hexacarbonyls of Rare</text>
<text text-anchor="middle" x="698.5" y="-200.8" font-family="Times,serif" font-size="14.00">(267446961)</text>
<text text-anchor="middle" x="698.5" y="-185.8" font-family="Times,serif" font-size="14.00">2023</text>
</a>
</g>
</g>
<!-- 259739018 -->
<g id="node4" class="node">
<title>259739018</title>
<g id="a_node4"><a xlink:href="https://www.semanticscholar.org/paper/8119b95e9c475d7959fae26c2e70d8d71fcb03b6" xlink:title="A DFT and Matrix–Isolation IR/UV&#45;Visible Study of High&#45;Coord\n(259739018)\n2023">
<polygon fill="none" stroke="black" points="670,-142 209,-142 209,-89 670,-89 670,-142"/>
<text text-anchor="middle" x="439.5" y="-126.8" font-family="Times,serif" font-size="14.00">A DFT and Matrix–Isolation IR/UV&#45;Visible Study of High&#45;Coord</text>
<text text-anchor="middle" x="439.5" y="-111.8" font-family="Times,serif" font-size="14.00">(259739018)</text>
<text text-anchor="middle" x="439.5" y="-96.8" font-family="Times,serif" font-size="14.00">2023</text>
</a>
</g>
</g>
<!-- 267446961&#45;&gt;259739018 -->
<g id="edge6" class="edge">
<title>267446961&#45;&gt;259739018</title>
<path fill="none" stroke="black" d="M622.54,-177.98C591.97,-167.72 556.57,-155.82 525.09,-145.25"/>
<polygon fill="black" stroke="black" points="526.05,-141.88 515.46,-142.01 523.82,-148.52 526.05,-141.88"/>
</g>
<!-- 249710437 -->
<g id="node5" class="node">
<title>249710437</title>
<g id="a_node5"><a xlink:href="https://www.semanticscholar.org/paper/a2266a06e752df98615787746599dc81440c0ae1" xlink:title="Photochemistry of transition metal carbonyls.\n(249710437)\n2023">
<polygon fill="none" stroke="black" points="1004.5,-53 660.5,-53 660.5,0 1004.5,0 1004.5,-53"/>
<text text-anchor="middle" x="832.5" y="-37.8" font-family="Times,serif" font-size="14.00">Photochemistry of transition metal carbonyls.</text>
<text text-anchor="middle" x="832.5" y="-22.8" font-family="Times,serif" font-size="14.00">(249710437)</text>
<text text-anchor="middle" x="832.5" y="-7.8" font-family="Times,serif" font-size="14.00">2023</text>
</a>
</g>
</g>
<!-- 267446961&#45;&gt;249710437 -->
<g id="edge1" class="edge">
<title>267446961&#45;&gt;249710437</title>
<path fill="none" stroke="black" d="M696.86,-177.85C696.57,-152.89 699.74,-115.03 718.5,-89 727.45,-76.58 739.71,-66.41 752.87,-58.19"/>
<polygon fill="black" stroke="black" points="754.77,-61.13 761.63,-53.05 751.23,-55.09 754.77,-61.13"/>
</g>
<!-- 267630595 -->
<g id="node2" class="node">
<title>267630595</title>
<g id="a_node2"><a xlink:href="https://www.semanticscholar.org/paper/c4c3b191a2b33164b5526aa27e32936550c71402" xlink:title="Effect of extraction parameters on the synergistic reaction \n(267630595)\n2023">
<polygon fill="none" stroke="black" points="441,-231 0,-231 0,-178 441,-178 441,-231"/>
<text text-anchor="middle" x="220.5" y="-215.8" font-family="Times,serif" font-size="14.00">Effect of extraction parameters on the synergistic reaction </text>
<text text-anchor="middle" x="220.5" y="-200.8" font-family="Times,serif" font-size="14.00">(267630595)</text>
<text text-anchor="middle" x="220.5" y="-185.8" font-family="Times,serif" font-size="14.00">2023</text>
</a>
</g>
</g>
<!-- 267630595&#45;&gt;259739018 -->
<g id="edge2" class="edge">
<title>267630595&#45;&gt;259739018</title>
<path fill="none" stroke="black" d="M284.73,-177.98C310.13,-167.89 339.48,-156.23 365.75,-145.8"/>
<polygon fill="black" stroke="black" points="367.27,-148.96 375.27,-142.01 364.69,-142.45 367.27,-148.96"/>
</g>
<!-- 268040009 -->
<g id="node3" class="node">
<title>268040009</title>
<g id="a_node3"><a xlink:href="https://www.semanticscholar.org/paper/974865acb588c06b3b4d587f81c7f56259ad4774" xlink:title="Unveiling Mechanistic Complexity in Manganese&#45;Catalyzed C–H \n(268040009)\n2023">
<polygon fill="none" stroke="black" points="1206,-142 727,-142 727,-89 1206,-89 1206,-142"/>
<text text-anchor="middle" x="966.5" y="-126.8" font-family="Times,serif" font-size="14.00">Unveiling Mechanistic Complexity in Manganese&#45;Catalyzed C–H </text>
<text text-anchor="middle" x="966.5" y="-111.8" font-family="Times,serif" font-size="14.00">(268040009)</text>
<text text-anchor="middle" x="966.5" y="-96.8" font-family="Times,serif" font-size="14.00">2023</text>
</a>
</g>
</g>
<!-- 268040009&#45;&gt;249710437 -->
<g id="edge5" class="edge">
<title>268040009&#45;&gt;249710437</title>
<path fill="none" stroke="black" d="M927.02,-88.87C912.56,-79.48 896.04,-68.75 880.89,-58.92"/>
<polygon fill="black" stroke="black" points="882.45,-55.76 872.16,-53.25 878.64,-61.63 882.45,-55.76"/>
</g>
<!-- 259739018&#45;&gt;249710437 -->
<g id="edge4" class="edge">
<title>259739018&#45;&gt;249710437</title>
<path fill="none" stroke="black" d="M554.76,-88.98C602.65,-78.38 658.35,-66.05 707.24,-55.23"/>
<polygon fill="black" stroke="black" points="708.24,-58.59 717.24,-53.01 706.72,-51.76 708.24,-58.59"/>
</g>
<!-- 268348425 -->
<g id="node6" class="node">
<title>268348425</title>
<g id="a_node6"><a xlink:href="https://www.semanticscholar.org/paper/b8003f5669c1719ebd86d70f0ff0d31d659482e9" xlink:title="Mid&#45;infrared dual&#45;comb spectroscopy with quantum cascade las\n(268348425)\n2023">
<polygon fill="none" stroke="black" points="1697,-142 1224,-142 1224,-89 1697,-89 1697,-142"/>
<text text-anchor="middle" x="1460.5" y="-126.8" font-family="Times,serif" font-size="14.00">Mid&#45;infrared dual&#45;comb spectroscopy with quantum cascade las</text>
<text text-anchor="middle" x="1460.5" y="-111.8" font-family="Times,serif" font-size="14.00">(268348425)</text>
<text text-anchor="middle" x="1460.5" y="-96.8" font-family="Times,serif" font-size="14.00">2023</text>
</a>
</g>
</g>
<!-- 268348425&#45;&gt;249710437 -->
<g id="edge3" class="edge">
<title>268348425&#45;&gt;249710437</title>
<path fill="none" stroke="black" d="M1276.32,-88.98C1193.81,-77.55 1096.78,-64.11 1014.52,-52.72"/>
<polygon fill="black" stroke="black" points="1014.95,-49.24 1004.57,-51.34 1013.99,-56.18 1014.95,-49.24"/>
</g>
</g>
</svg>
