<?xml version="1.0" encoding="UTF-8" standalone="no"?>
<!DOCTYPE svg PUBLIC "-//W3C//DTD SVG 1.1//EN"
 "http://www.w3.org/Graphics/SVG/1.1/DTD/svg11.dtd">
<!-- Generated by graphviz version 2.43.0 (0)
 -->
<!-- Title: %3 Pages: 1 -->
<svg width="3082pt" height="246pt"
 viewBox="0.00 0.00 3082.00 246.00" xmlns="http://www.w3.org/2000/svg" xmlns:xlink="http://www.w3.org/1999/xlink">
<g id="graph0" class="graph" transform="scale(1 1) rotate(0) translate(4 242)">
<title>%3</title>
<polygon fill="white" stroke="transparent" points="-4,4 -4,-242 3078,-242 3078,4 -4,4"/>
<g id="clust1" class="cluster">
<title>cluster_0</title>
<polygon fill="none" stroke="black" points="2678,-83 2678,-230 3066,-230 3066,-83 2678,-83"/>
<text text-anchor="middle" x="2872" y="-90.8" font-family="Times,serif" font-size="14.00">2023</text>
</g>
<g id="clust2" class="cluster">
<title>cluster_1</title>
<polygon fill="none" stroke="black" points="8,-8 8,-158 2670,-158 2670,-8 8,-8"/>
<text text-anchor="middle" x="1339" y="-15.8" font-family="Times,serif" font-size="14.00">2024</text>
</g>
<!-- 268248661 -->
<g id="node1" class="node">
<title>268248661</title>
<g id="a_node1"><a xlink:href="https://www.semanticscholar.org/paper/d66282661e999660d76414b2cc689c14e8c3b4ae" xlink:title="title: To Generate or to Retrieve? On the Effectiveness of Artificial Contexts for&#10;Medical Open&#45;Domain Question Answering &#10;authors: Giacomo Frisoni, Alessio Cocchieri, Alex Presepi, Gianluca Moro, Zaiqiao Meng&#10;published: 2024" target="_blank">
<polygon fill="none" stroke="black" points="675.5,-75 534.5,-75 534.5,-39 675.5,-39 675.5,-75"/>
<text text-anchor="middle" x="605" y="-53.3" font-family="Times,serif" font-size="14.00">To Generate or ...</text>
</a>
</g>
</g>
<!-- 265466787 -->
<g id="node15" class="node">
<title>265466787</title>
<g id="a_node15"><a xlink:href="https://www.semanticscholar.org/paper/bde9da9a39a065588d7f4573936731510d6f4f29" xlink:title="title: Can Generalist Foundation Models Outcompete Special&#45;Purpose Tuning? Case Study&#10;in Medicine &#10;authors: Harsha Nori, Yin Tat Lee, Sheng Zhang, Dean Carignan, Richard Edgar, Nicoló Fusi, Nicholas King, Jonathan Larson, Yuanzhi Li, Weishung Liu, Renqian Luo, S. McKinney, Robert Osazuwa Ness, Hoifung Poon, Tao Qin, Naoto Usuyama, Chris White, Eric Horvitz&#10;published: 2023" target="_blank">
<polygon fill="none" stroke="black" points="2912,-222 2686,-222 2686,-186 2912,-186 2912,-222"/>
<text text-anchor="middle" x="2799" y="-200.3" font-family="Times,serif" font-size="14.00">Can Generalist Foundation ...</text>
</a>
</g>
</g>
<!-- 268248661&#45;&gt;265466787 -->
<g id="edge9" class="edge">
<title>268248661&#45;&gt;265466787</title>
<path fill="none" stroke="black" d="M633.42,-75.16C674.74,-99.04 754.63,-141.26 829,-158 1008.1,-198.31 2271.85,-202.66 2675.43,-203.01"/>
<polygon fill="black" stroke="black" points="2675.67,-206.51 2685.67,-203.02 2675.68,-199.51 2675.67,-206.51"/>
</g>
<!-- 266436402 -->
<g id="node2" class="node">
<title>266436402</title>
<g id="a_node2"><a xlink:href="https://www.semanticscholar.org/paper/cf1d6701a19c44dd352a8e146884ed800888adac" xlink:title="title: Multimodal Large Language Models are Generalist Medical Image Interpreters &#10;authors: T. Han, L. C. Adams, S. Nebelung, J. N. Kather, K. Bressem, D. Truhn&#10;published: 2023" target="_blank">
<polygon fill="none" stroke="black" points="3058,-150 2822,-150 2822,-114 3058,-114 3058,-150"/>
<text text-anchor="middle" x="2940" y="-128.3" font-family="Times,serif" font-size="14.00">Multimodal Large Language ...</text>
</a>
</g>
</g>
<!-- 266436402&#45;&gt;265466787 -->
<g id="edge5" class="edge">
<title>266436402&#45;&gt;265466787</title>
<path fill="none" stroke="black" d="M2905.51,-150.12C2886.56,-159.53 2862.87,-171.29 2842.64,-181.33"/>
<polygon fill="black" stroke="black" points="2841.03,-178.23 2833.63,-185.81 2844.14,-184.5 2841.03,-178.23"/>
</g>
<!-- 269605152 -->
<g id="node3" class="node">
<title>269605152</title>
<g id="a_node3"><a xlink:href="https://www.semanticscholar.org/paper/0d69f44a47babaa522dee90baf632d9a8419bca3" xlink:title="title: Agent Hospital: A Simulacrum of Hospital with Evolvable Medical Agents &#10;authors: Junkai Li, Siyu Wang, Meng Zhang, Weitao Li, Yunghwei Lai, Xinhui Kang, Weizhi Ma, Yang Liu&#10;published: 2024" target="_blank">
<polygon fill="none" stroke="black" points="854,-75 694,-75 694,-39 854,-39 854,-75"/>
<text text-anchor="middle" x="774" y="-53.3" font-family="Times,serif" font-size="14.00">Agent Hospital: A ...</text>
</a>
</g>
</g>
<!-- 269605152&#45;&gt;265466787 -->
<g id="edge8" class="edge">
<title>269605152&#45;&gt;265466787</title>
<path fill="none" stroke="black" d="M812.28,-75.09C867.78,-98.89 974.4,-141.01 1070,-158 1226.47,-185.81 2306.58,-198.4 2675.68,-201.92"/>
<polygon fill="black" stroke="black" points="2675.82,-205.42 2685.86,-202.02 2675.89,-198.42 2675.82,-205.42"/>
</g>
<!-- 265067484 -->
<g id="node4" class="node">
<title>265067484</title>
<g id="a_node4"><a xlink:href="https://www.semanticscholar.org/paper/bca0bbd01ea917b7a9fe369288ea3ba03d3b1ff3" xlink:title="title: A Survey of Large Language Models in Medicine: Progress, Application, and&#10;Challenge &#10;authors: Hongjian Zhou, Boyang Gu, Xinyu Zou, Yiru Li, Sam S. Chen, Peilin Zhou, Junling Liu, Y. Hua, Chengfeng Mao, Xian Wu, Zheng Li, Fenglin Liu&#10;published: 2023" target="_blank">
<polygon fill="none" stroke="black" points="2803.5,-150 2686.5,-150 2686.5,-114 2803.5,-114 2803.5,-150"/>
<text text-anchor="middle" x="2745" y="-128.3" font-family="Times,serif" font-size="14.00">A Survey of ...</text>
</a>
</g>
</g>
<!-- 265067484&#45;&gt;265466787 -->
<g id="edge11" class="edge">
<title>265067484&#45;&gt;265466787</title>
<path fill="none" stroke="black" d="M2758.35,-150.3C2764.76,-158.61 2772.56,-168.72 2779.61,-177.86"/>
<polygon fill="black" stroke="black" points="2776.93,-180.12 2785.81,-185.9 2782.47,-175.84 2776.93,-180.12"/>
</g>
<!-- 266933212 -->
<g id="node5" class="node">
<title>266933212</title>
<g id="a_node5"><a xlink:href="https://www.semanticscholar.org/paper/021e6c5892347287182b405228fb22923691e3f0" xlink:title="title: Towards Conversational Diagnostic AI &#10;authors: Tao Tu, Anil Palepu, M. Schaekermann, Khaled Saab, Jan Freyberg, Ryutaro Tanno, Amy Wang, Brenna Li, Mohamed Amin, Nenad Tomašev, Shekoofeh Azizi, Karan Singhal, Yong Cheng, Le Hou, Albert Webson, Kavita Kulkarni, S. Mahdavi, Christopher Semturs, Juraj Gottweis, Joelle Barral, Katherine Chou, Greg S. Corrado, Yossi Matias, A. Karthikesalingam, Vivek Natarajan&#10;published: 2024" target="_blank">
<polygon fill="none" stroke="black" points="521.5,-150 234.5,-150 234.5,-114 521.5,-114 521.5,-150"/>
<text text-anchor="middle" x="378" y="-128.3" font-family="Times,serif" font-size="14.00">Towards Conversational Diagnostic ...</text>
</a>
</g>
</g>
<!-- 266933212&#45;&gt;265466787 -->
<g id="edge12" class="edge">
<title>266933212&#45;&gt;265466787</title>
<path fill="none" stroke="black" d="M521.79,-147.83C564.9,-151.76 612.33,-155.58 656,-158 1423.45,-200.52 2347.53,-203.72 2675.91,-203.37"/>
<polygon fill="black" stroke="black" points="2675.92,-206.87 2685.92,-203.36 2675.91,-199.87 2675.92,-206.87"/>
</g>
<!-- 269004975 -->
<g id="node6" class="node">
<title>269004975</title>
<g id="a_node6"><a xlink:href="https://www.semanticscholar.org/paper/db858bd3e62d652b772958a4646019e12751d1e1" xlink:title="title: Conversational Disease Diagnosis via External Planner&#45;Controlled Large Language&#10;Models &#10;authors: Zhoujian Sun, Cheng Luo, Zheng&#45;Wei Huang&#10;published: 2024" target="_blank">
<polygon fill="none" stroke="black" points="516,-75 240,-75 240,-39 516,-39 516,-75"/>
<text text-anchor="middle" x="378" y="-53.3" font-family="Times,serif" font-size="14.00">Conversational Disease Diagnosis ...</text>
</a>
</g>
</g>
<!-- 269004975&#45;&gt;266933212 -->
<g id="edge10" class="edge">
<title>269004975&#45;&gt;266933212</title>
<path fill="none" stroke="black" d="M378,-75.3C378,-83.75 378,-94.13 378,-103.63"/>
<polygon fill="black" stroke="black" points="374.5,-103.82 378,-113.82 381.5,-103.82 374.5,-103.82"/>
</g>
<!-- 268091253 -->
<g id="node7" class="node">
<title>268091253</title>
<g id="a_node7"><a xlink:href="https://www.semanticscholar.org/paper/45314de9beef18dcce99f0bc5e067446a0196505" xlink:title="title: OpenMedLM: Prompt engineering can out&#45;perform fine&#45;tuning in medical&#10;question&#45;answering with open&#45;source large language models &#10;authors: Jenish Maharjan, A. Garikipati, N. Singh, Leo Cyrus, Mayank Sharma, M. Ciobanu, G. Barnes, R. Thapa, Q. Mao, R. Das&#10;published: 2024" target="_blank">
<polygon fill="none" stroke="black" points="1151.5,-75 872.5,-75 872.5,-39 1151.5,-39 1151.5,-75"/>
<text text-anchor="middle" x="1012" y="-53.3" font-family="Times,serif" font-size="14.00">OpenMedLM: Prompt engineering ...</text>
</a>
</g>
</g>
<!-- 268091253&#45;&gt;265466787 -->
<g id="edge1" class="edge">
<title>268091253&#45;&gt;265466787</title>
<path fill="none" stroke="black" d="M1052.33,-75.02C1110.77,-98.73 1222.96,-140.75 1323,-158 1581.47,-202.58 2369.68,-204.64 2675.7,-203.68"/>
<polygon fill="black" stroke="black" points="2675.96,-207.18 2685.94,-203.64 2675.93,-200.18 2675.96,-207.18"/>
</g>
<!-- 269356899 -->
<g id="node8" class="node">
<title>269356899</title>
<g id="a_node8"><a xlink:href="https://www.semanticscholar.org/paper/3d5b18c93649faffe538bda523e92e51f86f8c7f" xlink:title="title: Large Language Models in Healthcare: A Comprehensive Benchmark &#10;authors: Andrew Liu, Hongjian Zhou, Yining Hua, Omid Rohanian, Lei A. Clifton, David A. Clifton&#10;published: 2024" target="_blank">
<polygon fill="none" stroke="black" points="1376,-75 1170,-75 1170,-39 1376,-39 1376,-75"/>
<text text-anchor="middle" x="1273" y="-53.3" font-family="Times,serif" font-size="14.00">Large Language Models ...</text>
</a>
</g>
</g>
<!-- 269356899&#45;&gt;265466787 -->
<g id="edge6" class="edge">
<title>269356899&#45;&gt;265466787</title>
<path fill="none" stroke="black" d="M1308.46,-75.18C1359.4,-98.89 1456.88,-140.68 1545,-158 1758.68,-200 2403.44,-203.85 2675.63,-203.51"/>
<polygon fill="black" stroke="black" points="2675.95,-207.01 2685.95,-203.5 2675.94,-200.01 2675.95,-207.01"/>
</g>
<!-- 268724339 -->
<g id="node9" class="node">
<title>268724339</title>
<g id="a_node9"><a xlink:href="https://www.semanticscholar.org/paper/5a28d82bf7f5beabfeb0974829e8da878aca1636" xlink:title="title: Large Language Models Produce Responses Perceived to be Empathic &#10;authors: Yoon Kyung Lee, Jina Suh, Hongli Zhan, Junyi Jessy Li, Desmond C. Ong&#10;published: 2024" target="_blank">
<polygon fill="none" stroke="black" points="222,-75 16,-75 16,-39 222,-39 222,-75"/>
<text text-anchor="middle" x="119" y="-53.3" font-family="Times,serif" font-size="14.00">Large Language Models ...</text>
</a>
</g>
</g>
<!-- 268724339&#45;&gt;266933212 -->
<g id="edge3" class="edge">
<title>268724339&#45;&gt;266933212</title>
<path fill="none" stroke="black" d="M179.4,-75.02C217.79,-85.84 267.63,-99.89 307.79,-111.21"/>
<polygon fill="black" stroke="black" points="306.93,-114.61 317.51,-113.95 308.83,-107.87 306.93,-114.61"/>
</g>
<!-- 269587885 -->
<g id="node10" class="node">
<title>269587885</title>
<g id="a_node10"><a xlink:href="https://www.semanticscholar.org/paper/6a617c48793e3ca895d971ecc18a47602ad25588" xlink:title="title: CRCL at SemEval&#45;2024 Task 2: Simple prompt optimizations &#10;authors: Cl&#39;ement Brutti&#45;Mairesse, L. Verlingue&#10;published: 2024" target="_blank">
<polygon fill="none" stroke="black" points="1596,-75 1394,-75 1394,-39 1596,-39 1596,-75"/>
<text text-anchor="middle" x="1495" y="-53.3" font-family="Times,serif" font-size="14.00">CRCL at SemEval&#45;2024 ...</text>
</a>
</g>
</g>
<!-- 269587885&#45;&gt;265466787 -->
<g id="edge4" class="edge">
<title>269587885&#45;&gt;265466787</title>
<path fill="none" stroke="black" d="M1530.48,-75.09C1581.45,-98.69 1678.95,-140.34 1767,-158 1937.23,-192.14 2440.3,-200.38 2675.36,-202.37"/>
<polygon fill="black" stroke="black" points="2675.64,-205.87 2685.67,-202.45 2675.69,-198.87 2675.64,-205.87"/>
</g>
<!-- 267253983 -->
<g id="node11" class="node">
<title>267253983</title>
<g id="a_node11"><a xlink:href="https://www.semanticscholar.org/paper/806f504fee3550f697124a5ce91cac2b0b483614" xlink:title="title: Evaluating and Mitigating Limitations of Large Language Models in Clinical&#10;Decision Making &#10;authors: P. Hager, F. Jungmann, K. Bhagat, I. Hubrecht, M. Knauer, J. Vielhauer, R. Holland, R. Braren, M. Makowski, G. Kaisis, D. Rueckert&#10;published: 2024" target="_blank">
<polygon fill="none" stroke="black" points="1836,-75 1614,-75 1614,-39 1836,-39 1836,-75"/>
<text text-anchor="middle" x="1725" y="-53.3" font-family="Times,serif" font-size="14.00">Evaluating and Mitigating ...</text>
</a>
</g>
</g>
<!-- 267253983&#45;&gt;265466787 -->
<g id="edge13" class="edge">
<title>267253983&#45;&gt;265466787</title>
<path fill="none" stroke="black" d="M1755.37,-75.03C1799.07,-98.55 1882.9,-140.11 1960,-158 2092.33,-188.7 2476.25,-198.55 2675.6,-201.64"/>
<polygon fill="black" stroke="black" points="2675.77,-205.14 2685.83,-201.79 2675.88,-198.14 2675.77,-205.14"/>
</g>
<!-- 268876504 -->
<g id="node12" class="node">
<title>268876504</title>
<g id="a_node12"><a xlink:href="https://www.semanticscholar.org/paper/5694a171cb93fe9b9932c236bcba1351c2d5af53" xlink:title="title: All You Need Is Context: Clinician Evaluations of various iterations of a Large&#10;Language Model&#45;Based First Aid Decision Support Tool in Ghana &#10;authors: Paulina Boadiwaa Mensah, Nana Serwaa Quao, Sesinam Dagadu&#10;published: 2024" target="_blank">
<polygon fill="none" stroke="black" points="1979.5,-75 1854.5,-75 1854.5,-39 1979.5,-39 1979.5,-75"/>
<text text-anchor="middle" x="1917" y="-53.3" font-family="Times,serif" font-size="14.00">All You Need ...</text>
</a>
</g>
</g>
<!-- 268876504&#45;&gt;265466787 -->
<g id="edge15" class="edge">
<title>268876504&#45;&gt;265466787</title>
<path fill="none" stroke="black" d="M1948.49,-75.04C1993.32,-98.38 2078.81,-139.5 2157,-158 2252.15,-180.52 2517.31,-193.28 2675.52,-199.1"/>
<polygon fill="black" stroke="black" points="2675.66,-202.61 2685.78,-199.47 2675.91,-195.61 2675.66,-202.61"/>
</g>
<!-- 268819983 -->
<g id="node13" class="node">
<title>268819983</title>
<g id="a_node13"><a xlink:href="https://www.semanticscholar.org/paper/59543d42558ce64d889284bff368ed9f020dde81" xlink:title="title: Small Language Models Learn Enhanced Reasoning Skills from Medical Textbooks &#10;authors: Hyunjae Kim, Hyeon Hwang, Jiwoo Lee, Sihyeon Park, Dain Kim, Taewhoo Lee, Chanwoong Yoon, Jiwoong Sohn, Donghee Choi, Jaewoo Kang&#10;published: 2024" target="_blank">
<polygon fill="none" stroke="black" points="2204,-75 1998,-75 1998,-39 2204,-39 2204,-75"/>
<text text-anchor="middle" x="2101" y="-53.3" font-family="Times,serif" font-size="14.00">Small Language Models ...</text>
</a>
</g>
</g>
<!-- 268819983&#45;&gt;265466787 -->
<g id="edge2" class="edge">
<title>268819983&#45;&gt;265466787</title>
<path fill="none" stroke="black" d="M2138.67,-75.1C2190.68,-97.93 2287.93,-137.81 2375,-158 2474.71,-181.12 2590.41,-192.39 2675.73,-197.87"/>
<polygon fill="black" stroke="black" points="2675.52,-201.36 2685.72,-198.5 2675.96,-194.38 2675.52,-201.36"/>
</g>
<!-- 269362893 -->
<g id="node14" class="node">
<title>269362893</title>
<g id="a_node14"><a xlink:href="https://www.semanticscholar.org/paper/6fc48cc949cfe22b719cdc0c5eaa68526f02d555" xlink:title="title: Assessing The Potential Of Mid&#45;Sized Language Models For Clinical QA &#10;authors: Elliot Bolton, Betty Xiong, V. Muralidharan, J. Schamroth, Vivek Muralidharan, Christopher D. Manning, R. Daneshjou&#10;published: 2024" target="_blank">
<polygon fill="none" stroke="black" points="2426,-75 2222,-75 2222,-39 2426,-39 2426,-75"/>
<text text-anchor="middle" x="2324" y="-53.3" font-family="Times,serif" font-size="14.00">Assessing The Potential ...</text>
</a>
</g>
</g>
<!-- 269362893&#45;&gt;265466787 -->
<g id="edge7" class="edge">
<title>269362893&#45;&gt;265466787</title>
<path fill="none" stroke="black" d="M2360.68,-75.05C2408.92,-96.92 2496.76,-134.76 2575,-158 2610.02,-168.4 2648.83,-177.14 2684.17,-184.07"/>
<polygon fill="black" stroke="black" points="2683.56,-187.52 2694.04,-185.98 2684.89,-180.64 2683.56,-187.52"/>
</g>
<!-- 267637243 -->
<g id="node16" class="node">
<title>267637243</title>
<g id="a_node16"><a xlink:href="https://www.semanticscholar.org/paper/75f184e0918036f2309ba60fcfe642d7052d3745" xlink:title="title: Addressing cognitive bias in medical language models &#10;authors: Samuel Schmidgall, Carl Harris, Ime Essien, Daniel Olshvang, Tawsifur Rahman, Ji Woong Kim, Rojin Ziaei, Jason Eshraghian, Peter Abadir, Rama Chellappa&#10;published: 2024" target="_blank">
<polygon fill="none" stroke="black" points="2662,-75 2444,-75 2444,-39 2662,-39 2662,-75"/>
<text text-anchor="middle" x="2553" y="-53.3" font-family="Times,serif" font-size="14.00">Addressing cognitive bias ...</text>
</a>
</g>
</g>
<!-- 267637243&#45;&gt;265466787 -->
<g id="edge14" class="edge">
<title>267637243&#45;&gt;265466787</title>
<path fill="none" stroke="black" d="M2570.71,-75.25C2593.79,-96.97 2636.17,-134.3 2678,-158 2694.86,-167.55 2714.13,-175.78 2732.27,-182.5"/>
<polygon fill="black" stroke="black" points="2731.32,-185.88 2741.91,-185.97 2733.69,-179.29 2731.32,-185.88"/>
</g>
</g>
</svg>
