<?xml version="1.0" encoding="UTF-8" standalone="no"?>
<!DOCTYPE svg PUBLIC "-//W3C//DTD SVG 1.1//EN"
 "http://www.w3.org/Graphics/SVG/1.1/DTD/svg11.dtd">
<!-- Generated by graphviz version 2.43.0 (0)
 -->
<!-- Title: %3 Pages: 1 -->
<svg width="517pt" height="188pt"
 viewBox="0.00 0.00 517.39 188.00" xmlns="http://www.w3.org/2000/svg" xmlns:xlink="http://www.w3.org/1999/xlink">
<g id="graph0" class="graph" transform="scale(1 1) rotate(0) translate(4 184)">
<title>%3</title>
<polygon fill="white" stroke="transparent" points="-4,4 -4,-184 513.39,-184 513.39,4 -4,4"/>
<!-- 267446961 -->
<g id="node1" class="node">
<title>267446961</title>
<ellipse fill="none" stroke="black" cx="63.69" cy="-162" rx="63.89" ry="18"/>
<text text-anchor="middle" x="63.69" y="-158.3" font-family="Times,serif" font-size="14.00">267446961</text>
</g>
<!-- 249710437 -->
<g id="node2" class="node">
<title>249710437</title>
<ellipse fill="none" stroke="black" cx="227.69" cy="-18" rx="63.89" ry="18"/>
<text text-anchor="middle" x="227.69" y="-14.3" font-family="Times,serif" font-size="14.00">249710437</text>
</g>
<!-- 267446961&#45;&gt;249710437 -->
<g id="edge1" class="edge">
<title>267446961&#45;&gt;249710437</title>
<path fill="none" stroke="black" d="M62.71,-143.78C62.54,-124.1 65.29,-92.04 82.69,-72 102.59,-49.11 133.22,-36.1 161.22,-28.7"/>
<polygon fill="black" stroke="black" points="162.11,-32.09 170.99,-26.32 160.45,-25.29 162.11,-32.09"/>
</g>
<!-- 259739018 -->
<g id="node4" class="node">
<title>259739018</title>
<ellipse fill="none" stroke="black" cx="155.69" cy="-90" rx="63.89" ry="18"/>
<text text-anchor="middle" x="155.69" y="-86.3" font-family="Times,serif" font-size="14.00">259739018</text>
</g>
<!-- 267446961&#45;&gt;259739018 -->
<g id="edge6" class="edge">
<title>267446961&#45;&gt;259739018</title>
<path fill="none" stroke="black" d="M85.03,-144.76C97.34,-135.4 112.99,-123.49 126.44,-113.26"/>
<polygon fill="black" stroke="black" points="128.63,-115.99 134.47,-107.15 124.39,-110.42 128.63,-115.99"/>
</g>
<!-- 267630595 -->
<g id="node3" class="node">
<title>267630595</title>
<ellipse fill="none" stroke="black" cx="208.69" cy="-162" rx="63.89" ry="18"/>
<text text-anchor="middle" x="208.69" y="-158.3" font-family="Times,serif" font-size="14.00">267630595</text>
</g>
<!-- 267630595&#45;&gt;259739018 -->
<g id="edge2" class="edge">
<title>267630595&#45;&gt;259739018</title>
<path fill="none" stroke="black" d="M195.86,-144.05C189.48,-135.63 181.65,-125.28 174.6,-115.97"/>
<polygon fill="black" stroke="black" points="177.23,-113.65 168.41,-107.79 171.65,-117.87 177.23,-113.65"/>
</g>
<!-- 259739018&#45;&gt;249710437 -->
<g id="edge4" class="edge">
<title>259739018&#45;&gt;249710437</title>
<path fill="none" stroke="black" d="M172.76,-72.41C181.9,-63.52 193.33,-52.41 203.39,-42.63"/>
<polygon fill="black" stroke="black" points="206.02,-44.95 210.75,-35.47 201.14,-39.93 206.02,-44.95"/>
</g>
<!-- 268348425 -->
<g id="node5" class="node">
<title>268348425</title>
<ellipse fill="none" stroke="black" cx="300.69" cy="-90" rx="63.89" ry="18"/>
<text text-anchor="middle" x="300.69" y="-86.3" font-family="Times,serif" font-size="14.00">268348425</text>
</g>
<!-- 268348425&#45;&gt;249710437 -->
<g id="edge3" class="edge">
<title>268348425&#45;&gt;249710437</title>
<path fill="none" stroke="black" d="M283.39,-72.41C274.12,-63.52 262.54,-52.41 252.34,-42.63"/>
<polygon fill="black" stroke="black" points="254.51,-39.86 244.87,-35.47 249.67,-44.92 254.51,-39.86"/>
</g>
<!-- 268040009 -->
<g id="node6" class="node">
<title>268040009</title>
<ellipse fill="none" stroke="black" cx="445.69" cy="-90" rx="63.89" ry="18"/>
<text text-anchor="middle" x="445.69" y="-86.3" font-family="Times,serif" font-size="14.00">268040009</text>
</g>
<!-- 268040009&#45;&gt;249710437 -->
<g id="edge5" class="edge">
<title>268040009&#45;&gt;249710437</title>
<path fill="none" stroke="black" d="M405.2,-76C369.37,-64.49 316.93,-47.65 278.33,-35.26"/>
<polygon fill="black" stroke="black" points="278.93,-31.78 268.34,-32.05 276.79,-38.44 278.93,-31.78"/>
</g>
</g>
</svg>
