<?xml version="1.0" encoding="UTF-8" standalone="no"?>
<!DOCTYPE svg PUBLIC "-//W3C//DTD SVG 1.1//EN"
 "http://www.w3.org/Graphics/SVG/1.1/DTD/svg11.dtd">
<!-- Generated by graphviz version 2.43.0 (0)
 -->
<!-- Title: %3 Pages: 1 -->
<svg width="1012pt" height="265pt"
 viewBox="0.00 0.00 1012.00 265.00" xmlns="http://www.w3.org/2000/svg" xmlns:xlink="http://www.w3.org/1999/xlink">
<g id="graph0" class="graph" transform="scale(1 1) rotate(0) translate(4 261)">
<title>%3</title>
<polygon fill="white" stroke="transparent" points="-4,4 -4,-261 1008,-261 1008,4 -4,4"/>
<g id="clust1" class="cluster">
<title>cluster_0</title>
<polygon fill="none" stroke="black" points="509,-174 509,-249 763,-249 763,-174 509,-174"/>
<text text-anchor="middle" x="636" y="-181.8" font-family="Times,serif" font-size="14.00">2022</text>
</g>
<g id="clust2" class="cluster">
<title>cluster_1</title>
<polygon fill="none" stroke="black" points="657,-91 657,-166 783,-166 783,-91 657,-91"/>
<text text-anchor="middle" x="720" y="-98.8" font-family="Times,serif" font-size="14.00">2023</text>
</g>
<g id="clust3" class="cluster">
<title>cluster_2</title>
<polygon fill="none" stroke="black" points="8,-8 8,-83 996,-83 996,-8 8,-8"/>
<text text-anchor="middle" x="502" y="-15.8" font-family="Times,serif" font-size="14.00">2024</text>
</g>
<!-- 268040009 -->
<g id="node1" class="node">
<title>268040009</title>
<g id="a_node1"><a xlink:href="https://www.semanticscholar.org/paper/974865acb588c06b3b4d587f81c7f56259ad4774" xlink:title="title: Unveiling Mechanistic Complexity in Manganese&#45;Catalyzed C–H Bond&#10;Functionalization Using IR Spectroscopy Over 16 Orders of Magnitude in Time &#10;authors: I. Fairlamb, Jason M. Lynam&#10;published: 2024" target="_blank">
<polygon fill="none" stroke="black" points="296,-75 16,-75 16,-39 296,-39 296,-75"/>
<text text-anchor="middle" x="156" y="-53.3" font-family="Times,serif" font-size="14.00">Unveiling Mechanistic Complexity ...</text>
</a>
</g>
</g>
<!-- 249710437 -->
<g id="node4" class="node">
<title>249710437</title>
<g id="a_node4"><a xlink:href="https://www.semanticscholar.org/paper/a2266a06e752df98615787746599dc81440c0ae1" xlink:title="title: Photochemistry of transition metal carbonyls. &#10;authors: J. J. Turner, M. George, M. Poliakoff, R. Perutz&#10;published: 2022" target="_blank">
<polygon fill="none" stroke="black" points="755.5,-241 516.5,-241 516.5,-205 755.5,-205 755.5,-241"/>
<text text-anchor="middle" x="636" y="-219.3" font-family="Times,serif" font-size="14.00">Photochemistry of transition ...</text>
</a>
</g>
</g>
<!-- 268040009&#45;&gt;249710437 -->
<g id="edge5" class="edge">
<title>268040009&#45;&gt;249710437</title>
<path fill="none" stroke="black" d="M206.01,-75.09C295.15,-105.54 481.1,-169.07 576.59,-201.7"/>
<polygon fill="black" stroke="black" points="575.51,-205.03 586.1,-204.95 577.77,-198.41 575.51,-205.03"/>
</g>
<!-- 259739018 -->
<g id="node2" class="node">
<title>259739018</title>
<g id="a_node2"><a xlink:href="https://www.semanticscholar.org/paper/8119b95e9c475d7959fae26c2e70d8d71fcb03b6" xlink:title="title: A DFT and Matrix–Isolation IR/UV&#45;Visible Study of High&#45;Coordinated&#10;Lanthanide&#45;CO Complexes &#10;authors: A. Kovács, W. Klotzbücher&#10;published: 2023" target="_blank">
<polygon fill="none" stroke="black" points="775,-158 665,-158 665,-122 775,-122 775,-158"/>
<text text-anchor="middle" x="720" y="-136.3" font-family="Times,serif" font-size="14.00">A DFT and ...</text>
</a>
</g>
</g>
<!-- 259739018&#45;&gt;249710437 -->
<g id="edge4" class="edge">
<title>259739018&#45;&gt;249710437</title>
<path fill="none" stroke="black" d="M702.19,-158.18C690.27,-169.67 674.41,-184.96 661.21,-197.69"/>
<polygon fill="black" stroke="black" points="658.56,-195.39 653.79,-204.85 663.42,-200.42 658.56,-195.39"/>
</g>
<!-- 268348425 -->
<g id="node3" class="node">
<title>268348425</title>
<g id="a_node3"><a xlink:href="https://www.semanticscholar.org/paper/b8003f5669c1719ebd86d70f0ff0d31d659482e9" xlink:title="title: Mid&#45;infrared dual&#45;comb spectroscopy with quantum cascade lasers &#10;authors: J. Hayden, M. Geiser, M. Gianella, Raphael Horvath, A. Hugi, L. Sterczewski, Markus Mangold&#10;published: 2024" target="_blank">
<polygon fill="none" stroke="black" points="615.5,-75 314.5,-75 314.5,-39 615.5,-39 615.5,-75"/>
<text text-anchor="middle" x="465" y="-53.3" font-family="Times,serif" font-size="14.00">Mid&#45;infrared dual&#45;comb spectroscopy ...</text>
</a>
</g>
</g>
<!-- 268348425&#45;&gt;249710437 -->
<g id="edge3" class="edge">
<title>268348425&#45;&gt;249710437</title>
<path fill="none" stroke="black" d="M482.98,-75.24C513.59,-104.6 575.91,-164.37 610.84,-197.87"/>
<polygon fill="black" stroke="black" points="608.62,-200.59 618.26,-204.99 613.47,-195.54 608.62,-200.59"/>
</g>
<!-- 267630595 -->
<g id="node5" class="node">
<title>267630595</title>
<g id="a_node5"><a xlink:href="https://www.semanticscholar.org/paper/c4c3b191a2b33164b5526aa27e32936550c71402" xlink:title="title: Effect of extraction parameters on the synergistic reaction mechanism for&#10;arsenic and mercury removal from natural gas condensate via LLE, vibrational&#10;spectroscopy and DFT calculations &#10;authors: Teerapon Pirom, Kasidit Nootong, Wikorn Punyain, K. Maneeintr, U. Pancharoen&#10;published: 2024" target="_blank">
<polygon fill="none" stroke="black" points="806,-75 634,-75 634,-39 806,-39 806,-75"/>
<text text-anchor="middle" x="720" y="-53.3" font-family="Times,serif" font-size="14.00">Effect of extraction ...</text>
</a>
</g>
</g>
<!-- 267630595&#45;&gt;259739018 -->
<g id="edge2" class="edge">
<title>267630595&#45;&gt;259739018</title>
<path fill="none" stroke="black" d="M720,-75.18C720,-85.81 720,-99.69 720,-111.8"/>
<polygon fill="black" stroke="black" points="716.5,-111.85 720,-121.85 723.5,-111.85 716.5,-111.85"/>
</g>
<!-- 267446961 -->
<g id="node6" class="node">
<title>267446961</title>
<g id="a_node6"><a xlink:href="https://www.semanticscholar.org/paper/e3ba79aa32a1148dca4a7f52108259344fdc4711" xlink:title="title: Preference of C2v Symmetry in Low&#45;Spin Hexacarbonyls of Rare&#45;Earth and f&#10;Elements &#10;authors: Attila Kovács, Werner Klotzbücher&#10;published: 2024" target="_blank">
<polygon fill="none" stroke="black" points="987.5,-75 824.5,-75 824.5,-39 987.5,-39 987.5,-75"/>
<text text-anchor="middle" x="906" y="-53.3" font-family="Times,serif" font-size="14.00">Preference of C2v ...</text>
</a>
</g>
</g>
<!-- 267446961&#45;&gt;259739018 -->
<g id="edge6" class="edge">
<title>267446961&#45;&gt;259739018</title>
<path fill="none" stroke="black" d="M866.55,-75.18C837.85,-87.68 798.83,-104.67 768.26,-117.98"/>
<polygon fill="black" stroke="black" points="766.84,-114.78 759.07,-121.99 769.64,-121.2 766.84,-114.78"/>
</g>
<!-- 267446961&#45;&gt;249710437 -->
<g id="edge1" class="edge">
<title>267446961&#45;&gt;249710437</title>
<path fill="none" stroke="black" d="M891.05,-75.18C869.93,-98.54 829.2,-140.35 787,-166 762.63,-180.81 733.72,-192.7 707.75,-201.66"/>
<polygon fill="black" stroke="black" points="706.32,-198.45 697.96,-204.95 708.55,-205.08 706.32,-198.45"/>
</g>
</g>
</svg>
